<svg width="36" height="36" viewBox="0 0 36 36" fill="none" xmlns="http://www.w3.org/2000/svg">
<path fill-rule="evenodd" clip-rule="evenodd" d="M15.6339 18.072V26.8779C15.6339 27.0048 15.7367 27.1071 15.863 27.1071H19.133C19.2598 27.1071 19.3621 27.0043 19.3621 26.8779V17.9284H21.7333C21.8525 17.9284 21.9519 17.8371 21.962 17.7184L22.1897 15.022C22.2007 14.8885 22.0955 14.7732 21.961 14.7732H19.3621V12.8603C19.3621 12.4121 19.7258 12.0485 20.174 12.0485H22.0009C22.1277 12.0485 22.23 11.9457 22.23 11.8188V9.12245C22.23 8.99563 22.1277 8.89282 22.0009 8.89282H18.9135C17.1019 8.89282 15.6334 10.3618 15.6334 12.1734V14.7732H13.9982C13.8714 14.7732 13.7686 14.876 13.7686 15.0024V17.6987C13.7686 17.8256 13.8714 17.9284 13.9982 17.9284H15.6334L15.6339 18.072Z" fill="white"/>
<path d="M18 0C8.07478 0 0 8.07478 0 18C0 27.9252 8.07478 36 18 36C27.9252 36 36 27.9252 36 18C36 8.07478 27.9252 0 18 0ZM33.6913 18C33.6913 26.6522 26.6522 33.6917 18 33.6917C9.34732 33.6917 2.30825 26.6527 2.30825 18C2.30825 9.34731 9.34732 2.30825 18 2.30825C26.6522 2.30825 33.6913 9.34731 33.6913 18Z" fill="white"/>
</svg>
