<svg width="24" height="24" viewBox="0 0 24 24" fill="none" xmlns="http://www.w3.org/2000/svg">
<path d="M22.5 24C19.7889 24 17.0944 23.3333 14.4167 22C11.7389 20.6667 9.33333 18.9333 7.2 16.8C5.06667 14.6667 3.33333 12.2611 2 9.58333C0.666667 6.90556 0 4.21111 0 1.5C0 1.07142 0.142855 0.714278 0.428567 0.428567C0.714278 0.142855 1.07142 0 1.5 0H6.16667C6.46913 0 6.7392 0.105556 6.97687 0.316667C7.21451 0.527778 7.36667 0.811111 7.43333 1.16667L8.33333 5.36667C8.37778 5.67778 8.37222 5.96111 8.31667 6.21667C8.26111 6.47222 8.14444 6.68889 7.96667 6.86667L4.63333 10.2333C5.87778 12.3 7.27222 14.1 8.81667 15.6333C10.3611 17.1667 12.1111 18.4667 14.0667 19.5333L17.2333 16.2667C17.4556 16.0222 17.7111 15.85 18 15.75C18.2889 15.65 18.5778 15.6333 18.8667 15.7L22.8333 16.5667C23.1736 16.6417 23.4531 16.8104 23.6719 17.0729C23.8906 17.3354 24 17.6444 24 18V22.5C24 22.9286 23.8571 23.2857 23.5714 23.5714C23.2857 23.8571 22.9286 24 22.5 24ZM3.63333 8.4L6.33333 5.66667L5.56667 2H2C2 2.86667 2.13333 3.81667 2.4 4.85C2.66667 5.88333 3.07778 7.06667 3.63333 8.4ZM15.9333 20.5C16.8444 20.9222 17.8333 21.2667 18.9 21.5333C19.9667 21.8 21 21.9556 22 22V18.4333L18.5667 17.7333L15.9333 20.5Z" fill="white"/>
</svg>
