<svg width="36" height="36" viewBox="0 0 36 36" fill="none" xmlns="http://www.w3.org/2000/svg">
<path fill-rule="evenodd" clip-rule="evenodd" d="M15.6336 18.072V26.8779C15.6336 27.0048 15.7364 27.1071 15.8627 27.1071H19.1327C19.2595 27.1071 19.3618 27.0043 19.3618 26.8779V17.9284H21.733C21.8522 17.9284 21.9516 17.8371 21.9617 17.7184L22.1894 15.022C22.2004 14.8885 22.0952 14.7732 21.9607 14.7732H19.3618V12.8603C19.3618 12.4121 19.7255 12.0485 20.1737 12.0485H22.0006C22.1274 12.0485 22.2297 11.9457 22.2297 11.8188V9.12245C22.2297 8.99563 22.1274 8.89282 22.0006 8.89282H18.9132C17.1016 8.89282 15.6331 10.3618 15.6331 12.1734V14.7732H13.9979C13.8711 14.7732 13.7682 14.876 13.7682 15.0024V17.6987C13.7682 17.8256 13.8711 17.9284 13.9979 17.9284H15.6331L15.6336 18.072Z" fill="black"/>
<path d="M18 0C8.07478 0 0 8.07478 0 18C0 27.9252 8.07478 36 18 36C27.9252 36 36 27.9252 36 18C36 8.07478 27.9252 0 18 0ZM33.6913 18C33.6913 26.6522 26.6522 33.6917 18 33.6917C9.34732 33.6917 2.30825 26.6527 2.30825 18C2.30825 9.34731 9.34732 2.30825 18 2.30825C26.6522 2.30825 33.6913 9.34731 33.6913 18Z" fill="black"/>
</svg>
