<svg width="24" height="35" viewBox="0 0 24 35" fill="none" xmlns="http://www.w3.org/2000/svg">
<path d="M12 25.4625C15.08 23.0166 17.4056 20.6624 18.9767 18.3999C20.5478 16.1375 21.3333 14.0292 21.3333 12.075C21.3333 10.3542 21.0148 8.89583 20.3778 7.7C19.7407 6.50417 18.9554 5.52883 18.0218 4.774C17.0882 4.01914 16.0768 3.47226 14.9876 3.13337C13.8983 2.79446 12.9025 2.625 12 2.625C11.0975 2.625 10.1017 2.79446 9.01244 3.13337C7.92323 3.47226 6.91181 4.01914 5.97818 4.774C5.04458 5.52883 4.25926 6.50417 3.62222 7.7C2.98519 8.89583 2.66667 10.3542 2.66667 12.075C2.66667 14.0292 3.45222 16.1375 5.02333 18.3999C6.59444 20.6624 8.92 23.0166 12 25.4625ZM12 28.7875C7.94074 25.7833 4.92593 22.9075 2.95556 20.16C0.985185 17.4125 0 14.7211 0 12.0858C0 10.0953 0.362963 8.34896 1.08889 6.84687C1.81481 5.34479 2.75556 4.08333 3.91111 3.0625C5.06667 2.04167 6.35526 1.27604 7.77689 0.765625C9.19852 0.255208 10.6059 0 11.9991 0C13.3923 0 14.8 0.255208 16.2222 0.765625C17.6444 1.27604 18.9333 2.04167 20.0889 3.0625C21.2444 4.08333 22.1852 5.34527 22.9111 6.84832C23.637 8.35137 24 10.1002 24 12.0949C24 14.7358 23.0148 17.4271 21.0444 20.1687C19.0741 22.9104 16.0593 25.7833 12 28.7875ZM12.004 14.875C12.8606 14.875 13.5926 14.5747 14.2 13.9742C14.8074 13.3737 15.1111 12.6519 15.1111 11.8086C15.1111 10.9654 14.8061 10.2448 14.196 9.64687C13.586 9.04896 12.8527 8.75 11.996 8.75C11.1394 8.75 10.4074 9.05026 9.8 9.65077C9.19259 10.2513 8.88889 10.9731 8.88889 11.8164C8.88889 12.6596 9.19391 13.3802 9.80396 13.9781C10.414 14.576 11.1473 14.875 12.004 14.875ZM0 35V32.375H24V35H0Z" fill="black"/>
</svg>
