<svg width="36" height="36" viewBox="0 0 36 36" fill="none" xmlns="http://www.w3.org/2000/svg">
<path d="M23.9986 13.0353C23.9986 13.631 23.5158 14.1137 22.9201 14.1137C22.3245 14.1137 21.8417 13.631 21.8417 13.0353C21.8417 12.4396 22.3245 11.9568 22.9201 11.9568C23.5158 11.9568 23.9986 12.4396 23.9986 13.0353ZM22.6559 17.8689C22.6559 20.3664 20.6239 22.3984 18.1269 22.3984C15.6294 22.3984 13.5973 20.3664 13.5973 17.8689C13.5973 15.3714 15.6294 13.3398 18.1269 13.3398C20.6244 13.3398 22.6559 15.3719 22.6559 17.8689ZM21.0284 17.8689C21.0284 16.2692 19.7266 14.9674 18.1269 14.9674C16.5272 14.9674 15.2253 16.2692 15.2253 17.8689C15.2253 19.4691 16.5272 20.7704 18.1269 20.7704C19.7266 20.7704 21.0284 19.4691 21.0284 17.8689ZM27.294 14.2305C27.294 11.1796 24.8205 8.70605 21.7696 8.70605H14.231C11.18 8.70605 8.70654 11.1796 8.70654 14.2305V21.7696C8.70654 24.8205 11.18 27.294 14.231 27.294H21.7696C24.821 27.294 27.294 24.8205 27.294 21.7696V14.2305ZM25.4806 21.6865C25.4806 23.782 23.7815 25.4806 21.686 25.4806H14.3141C12.2186 25.4806 10.5195 23.782 10.5195 21.6865V14.3136C10.5195 12.2181 12.2181 10.5195 14.3141 10.5195H21.6865C23.782 10.5195 25.4811 12.2181 25.4811 14.3136L25.4806 21.6865Z" fill="black"/>
<path d="M18 0C8.07478 0 0 8.07478 0 18C0 27.9252 8.07478 36 18 36C27.9252 36 36 27.9252 36 18C36 8.07478 27.9252 0 18 0ZM18 33.6913C9.3478 33.6913 2.30873 26.6522 2.30873 18C2.30873 9.3478 9.3478 2.30825 18 2.30825C26.6527 2.30825 33.6918 9.34732 33.6918 18C33.6918 26.6522 26.6527 33.6913 18 33.6913Z" fill="black"/>
</svg>
