<svg width="29" height="24" viewBox="0 0 29 24" fill="none" xmlns="http://www.w3.org/2000/svg">
<path d="M1.5 24C0.671573 24 0 23.3284 0 22.5C0 21.6716 0.671573 21 1.5 21H27.5C28.3284 21 29 21.6716 29 22.5C29 23.3284 28.3284 24 27.5 24H1.5ZM1.5 13.5C0.671573 13.5 0 12.8284 0 12C0 11.1716 0.671573 10.5 1.5 10.5H27.5C28.3284 10.5 29 11.1716 29 12C29 12.8284 28.3284 13.5 27.5 13.5H1.5ZM1.5 3C0.671573 3 0 2.32843 0 1.5C0 0.671573 0.671573 0 1.5 0H27.5C28.3284 0 29 0.671573 29 1.5C29 2.32843 28.3284 3 27.5 3H1.5Z" fill="black"/>
</svg>
