<svg width="36" height="36" viewBox="0 0 36 36" fill="none" xmlns="http://www.w3.org/2000/svg">
<path d="M27.352 15.6252C27.352 13.3035 25.4873 11.4209 23.1877 11.4209H12.47C10.1699 11.4209 8.30566 13.303 8.30566 15.6252V20.3737C8.30566 22.6958 10.1699 24.578 12.47 24.578H23.1877C25.4878 24.578 27.352 22.6958 27.352 20.3737V15.6252ZM21.4581 18.1246L16.6648 20.5096C16.4778 20.612 15.8235 20.4751 15.8235 20.2599V15.3638C15.8235 15.1462 16.483 15.0093 16.67 15.1174L21.2502 17.6279C21.4419 17.7388 21.6522 18.0184 21.4581 18.1246Z" fill="white"/>
<path d="M17.8287 0C7.99796 0 0 8.07468 0 17.9998C0 27.9249 7.99796 36 17.8287 36C27.6595 36 35.6575 27.9249 35.6575 17.9998C35.6575 8.07419 27.6595 0 17.8287 0ZM17.8287 33.6908C9.25839 33.6908 2.28629 26.6518 2.28629 17.9993C2.28629 9.34719 9.25839 2.30821 17.8287 2.30821C26.3991 2.30821 33.3712 9.34719 33.3712 17.9993C33.3712 26.6518 26.3991 33.6908 17.8287 33.6908Z" fill="white"/>
</svg>
