<svg width="36" height="36" viewBox="0 0 36 36" fill="none" xmlns="http://www.w3.org/2000/svg">
<path d="M27.615 15.6254C27.615 13.3037 25.7324 11.4211 23.4107 11.4211H12.59C10.2678 11.4211 8.38568 13.3033 8.38568 15.6254V20.3739C8.38568 22.6961 10.2678 24.5782 12.59 24.5782H23.4107C25.7328 24.5782 27.615 22.6961 27.615 20.3739V15.6254ZM21.6645 18.1248L16.8251 20.5099C16.6363 20.6122 15.9758 20.4753 15.9758 20.2601V15.3641C15.9758 15.1465 16.6416 15.0096 16.8304 15.1177L21.4545 17.6281C21.6481 17.7391 21.8605 18.0186 21.6645 18.1248Z" fill="black"/>
<path d="M18 0C8.07478 0 0 8.07468 0 17.9998C0 27.9249 8.07478 36 18 36C27.9252 36 36 27.9249 36 17.9998C36 8.07419 27.9252 0 18 0ZM18 33.6908C9.34732 33.6908 2.30825 26.6519 2.30825 17.9993C2.30825 9.34719 9.34732 2.30821 18 2.30821C26.6527 2.30821 33.6917 9.34719 33.6917 17.9993C33.6917 26.6519 26.6527 33.6908 18 33.6908Z" fill="black"/>
</svg>
